# xmcd CD database file
#
# Track frame offsets:
#	180
#	11206
#	25999
#	37610
#	45354
#
# Disc length: 778 seconds
#
# Revision: 2
# Processed by: cddbd v1.4b41PL1 Copyright (c) Steve Scherf et al.
# Submitted via: Feurio! 1.52 - http://www.feurio.com
#
DISCID=2d030805
DTITLE=Norbert und die Feiglinge - Live!
DYEAR=1900
DGENRE=
TTITLE0=Manni
TTITLE1=Auf meinem Fensterbrett
TTITLE2=Mahlzeit
TTITLE3=Uwe Barschel lebt
TTITLE4=Aids
EXTD=
EXTT0=
EXTT1=
EXTT2=
EXTT3=
EXTT4=
PLAYORDER=
